# xmcd
# 
# Track frame offsets:
#     151
#     21559
#     41841
#     62320
#     78179
#     95620
#     120877
#     138923
#     153055
#     170615
# 
# Disc length: 2493
# 
# Revision: 5
# Processed by: cddbd v1.5.2PL0 Copyright (c) Steve Scherf et al.
# Submitted via: fre:ac v1.0.27
# 
DISCID=7209bb0a
DTITLE=Wovenhand - Consider The Birds
DYEAR=2004
DGENRE=AltCountry
TTITLE0=Sparrow Falls
TTITLE1=Bleary Eyed Duty
TTITLE2=To Make A Ring
TTITLE3=Off the Cuff
TTITLE4=Chest of Drawers
TTITLE5=Oil On Panel
TTITLE6=The Speaking Hands
TTITLE7=Down In Yon Forest
TTITLE8=Tin Finger
TTITLE9=Into the Piano
EXTD=
EXTT0=
EXTT1=
EXTT2=
EXTT3=
EXTT4=
EXTT5=
EXTT6=
EXTT7=
EXTT8=
EXTT9=
PLAYORDER=
